# MagicaVoxel @ Ephtracy

# group
o 

# material
mtllib _buildingInProgress.mtl
usemtl palette

# normals
vn -1 0 0
vn 1 0 0
vn 0 0 1
vn 0 0 -1
vn 0 -1 0
vn 0 1 0

# texcoords
vt 0.916016 0.5
vt 0.943359 0.5
vt 0.970703 0.5

# verts
v -1.4 0 1.4
v -1.4 0 1.2
v -1.4 0 -1.2
v -1.4 0 -1.4
v -1.4 0.4 1.2
v -1.4 0.4 -1.2
v -1.4 0.5 1.4
v -1.4 0.5 -1.4
v -1.3 0 1.2
v -1.3 0 -1.2
v -1.3 0.4 1.2
v -1.3 0.4 -1.2
v -0.9 0.5 -0.6
v -0.9 0.5 -1
v -0.9 0.7 -0.6
v -0.9 0.7 -1
v -0.7 0.5 1.1
v -0.7 0.5 0.9
v -0.7 0.5 0.7
v -0.7 0.5 0.5
v -0.7 0.5 0.3
v -0.7 0.5 0.1
v -0.7 0.8 1.1
v -0.7 0.8 1
v -0.7 0.8 0.2
v -0.7 0.8 0.1
v -0.7 1 1
v -0.7 1 0.9
v -0.7 1 0.3
v -0.7 1 0.2
v -0.7 1.2 0.7
v -0.7 1.2 0.5
v -0.6 0.5 -0.7
v -0.6 0.5 -0.9
v -0.6 0.7 -0.7
v -0.6 0.7 -0.9
v -0.4 0.5 -0.4
v -0.4 0.5 -0.8
v -0.4 0.9 -0.4
v -0.4 0.9 -0.8
v -0.1 0.5 -0.5
v -0.1 0.5 -0.7
v -0.1 0.9 -0.5
v -0.1 0.9 -0.7
v 0.5 0.5 -0.2
v 0.5 0.5 -1.1
v 0.5 0.7 -0.2
v 0.5 0.7 -1.1
v 0.8 0.5 -0.2
v 0.8 0.5 -1.1
v 0.8 0.9 -0.2
v 0.8 0.9 -1.1
v -1.2 0 1.4
v -1.2 0 1.3
v -1.2 0 -1.3
v -1.2 0 -1.4
v -1.2 0.4 1.3
v -1.2 0.4 1.2
v -1.2 0.4 -1.2
v -1.2 0.4 -1.3
v -1.2 0.5 1.4
v -1.2 0.5 1.2
v -1.2 0.5 -1.2
v -1.2 0.5 -1.4
v -0.8 0.5 -0.7
v -0.8 0.5 -0.9
v -0.8 0.7 -0.7
v -0.8 0.7 -0.9
v -0.5 0.5 -0.6
v -0.5 0.5 -1
v -0.5 0.7 -0.6
v -0.5 0.7 -1
v -0.3 0.5 -0.5
v -0.3 0.5 -0.7
v -0.3 0.9 -0.5
v -0.3 0.9 -0.7
v 0 0.5 -0.4
v 0 0.5 -0.8
v 0 0.9 -0.4
v 0 0.9 -0.8
v 0.7 0.5 -0.2
v 0.7 0.5 -1.1
v 0.7 0.7 -0.2
v 0.7 0.7 -1.1
v 0.9 0.5 1.1
v 0.9 0.5 0.9
v 0.9 0.5 0.7
v 0.9 0.5 0.5
v 0.9 0.5 0.3
v 0.9 0.5 0.1
v 0.9 0.8 1.1
v 0.9 0.8 1
v 0.9 0.8 0.2
v 0.9 0.8 0.1
v 0.9 1 1
v 0.9 1 0.9
v 0.9 1 0.3
v 0.9 1 0.2
v 0.9 1.2 0.7
v 0.9 1.2 0.5
v 1 0.5 -0.2
v 1 0.5 -1.1
v 1 0.9 -0.2
v 1 0.9 -1.1
v 1.2 0.4 1.2
v 1.2 0.4 -1.2
v 1.2 0.5 1.2
v 1.2 0.5 -1.2
v 1.3 0 1.3
v 1.3 0 -1.3
v 1.3 0.4 1.3
v 1.3 0.4 -1.3
v -1.4 0 1.4
v -1.4 0.5 1.4
v -1.2 0 1.4
v -1.2 0.5 1.4
v -1.2 0 1.3
v -1.2 0.4 1.3
v 1.3 0 1.3
v 1.3 0.4 1.3
v -1.2 0.4 1.2
v -1.2 0.5 1.2
v 1.2 0.4 1.2
v 1.2 0.5 1.2
v -0.7 0.5 1.1
v -0.7 0.8 1.1
v 0.9 0.5 1.1
v 0.9 0.8 1.1
v -0.7 0.8 1
v -0.7 1 1
v 0.9 0.8 1
v 0.9 1 1
v -0.7 0.5 0.7
v -0.7 1.2 0.7
v 0.9 0.5 0.7
v 0.9 1.2 0.7
v -0.7 0.5 0.3
v -0.7 1 0.3
v 0.9 0.5 0.3
v 0.9 1 0.3
v 0.5 0.5 -0.2
v 0.5 0.7 -0.2
v 0.7 0.5 -0.2
v 0.7 0.7 -0.2
v 0.8 0.5 -0.2
v 0.8 0.9 -0.2
v 1 0.5 -0.2
v 1 0.9 -0.2
v -0.4 0.5 -0.4
v -0.4 0.9 -0.4
v 0 0.5 -0.4
v 0 0.9 -0.4
v -0.9 0.5 -0.6
v -0.9 0.7 -0.6
v -0.5 0.5 -0.6
v -0.5 0.7 -0.6
v -0.3 0.5 -0.7
v -0.3 0.9 -0.7
v -0.1 0.5 -0.7
v -0.1 0.9 -0.7
v -0.8 0.5 -0.9
v -0.8 0.7 -0.9
v -0.6 0.5 -0.9
v -0.6 0.7 -0.9
v -1.4 0 -1.2
v -1.4 0.4 -1.2
v -1.3 0 -1.2
v -1.3 0.4 -1.2
v -1.4 0 1.2
v -1.4 0.4 1.2
v -1.3 0 1.2
v -1.3 0.4 1.2
v -0.7 0.5 0.9
v -0.7 1 0.9
v 0.9 0.5 0.9
v 0.9 1 0.9
v -0.7 0.5 0.5
v -0.7 1.2 0.5
v 0.9 0.5 0.5
v 0.9 1.2 0.5
v -0.7 0.8 0.2
v -0.7 1 0.2
v 0.9 0.8 0.2
v 0.9 1 0.2
v -0.7 0.5 0.1
v -0.7 0.8 0.1
v 0.9 0.5 0.1
v 0.9 0.8 0.1
v -0.3 0.5 -0.5
v -0.3 0.9 -0.5
v -0.1 0.5 -0.5
v -0.1 0.9 -0.5
v -0.8 0.5 -0.7
v -0.8 0.7 -0.7
v -0.6 0.5 -0.7
v -0.6 0.7 -0.7
v -0.4 0.5 -0.8
v -0.4 0.9 -0.8
v 0 0.5 -0.8
v 0 0.9 -0.8
v -0.9 0.5 -1
v -0.9 0.7 -1
v -0.5 0.5 -1
v -0.5 0.7 -1
v 0.5 0.5 -1.1
v 0.5 0.7 -1.1
v 0.7 0.5 -1.1
v 0.7 0.7 -1.1
v 0.8 0.5 -1.1
v 0.8 0.9 -1.1
v 1 0.5 -1.1
v 1 0.9 -1.1
v -1.2 0.4 -1.2
v -1.2 0.5 -1.2
v 1.2 0.4 -1.2
v 1.2 0.5 -1.2
v -1.2 0 -1.3
v -1.2 0.4 -1.3
v 1.3 0 -1.3
v 1.3 0.4 -1.3
v -1.4 0 -1.4
v -1.4 0.5 -1.4
v -1.2 0 -1.4
v -1.2 0.5 -1.4
v -1.4 0 1.4
v -1.2 0 1.4
v -1.3 0 1.3
v -1.2 0 1.3
v 1.3 0 1.3
v -1.4 0 1.2
v -1.3 0 1.2
v -1.4 0 -1.2
v -1.3 0 -1.2
v -1.3 0 -1.3
v -1.2 0 -1.3
v 1.3 0 -1.3
v -1.4 0 -1.4
v -1.2 0 -1.4
v -1.4 0.4 1.2
v -1.3 0.4 1.2
v -1.4 0.4 -1.2
v -1.3 0.4 -1.2
v -1.2 0.4 1.3
v 1.3 0.4 1.3
v -1.2 0.4 1.2
v 1.2 0.4 1.2
v -1.2 0.4 -1.2
v 1.2 0.4 -1.2
v -1.2 0.4 -1.3
v 1.3 0.4 -1.3
v -1.4 0.5 1.4
v -1.2 0.5 1.4
v -1.2 0.5 1.2
v 1.2 0.5 1.2
v -0.7 0.5 1.1
v 0.9 0.5 1.1
v -0.7 0.5 0.9
v 0.9 0.5 0.9
v -0.7 0.5 0.7
v 0.9 0.5 0.7
v -0.7 0.5 0.5
v 0.9 0.5 0.5
v -0.7 0.5 0.3
v 0.9 0.5 0.3
v -0.7 0.5 0.1
v 0.9 0.5 0.1
v 0.5 0.5 -0.2
v 0.7 0.5 -0.2
v 0.8 0.5 -0.2
v 1 0.5 -0.2
v -0.4 0.5 -0.4
v 0 0.5 -0.4
v -0.3 0.5 -0.5
v -0.1 0.5 -0.5
v -0.9 0.5 -0.6
v -0.5 0.5 -0.6
v -0.8 0.5 -0.7
v -0.6 0.5 -0.7
v -0.3 0.5 -0.7
v -0.1 0.5 -0.7
v -0.4 0.5 -0.8
v 0 0.5 -0.8
v -0.8 0.5 -0.9
v -0.6 0.5 -0.9
v -0.9 0.5 -1
v -0.5 0.5 -1
v 0.5 0.5 -1.1
v 0.7 0.5 -1.1
v 0.8 0.5 -1.1
v 1 0.5 -1.1
v -1.2 0.5 -1.2
v 1.2 0.5 -1.2
v -1.4 0.5 -1.4
v -1.2 0.5 -1.4
v 0.5 0.7 -0.2
v 0.7 0.7 -0.2
v -0.9 0.7 -0.6
v -0.5 0.7 -0.6
v -0.8 0.7 -0.7
v -0.6 0.7 -0.7
v -0.8 0.7 -0.9
v -0.6 0.7 -0.9
v -0.9 0.7 -1
v -0.5 0.7 -1
v 0.5 0.7 -1.1
v 0.7 0.7 -1.1
v -0.7 0.8 1.1
v 0.9 0.8 1.1
v -0.7 0.8 1
v 0.9 0.8 1
v -0.7 0.8 0.2
v 0.9 0.8 0.2
v -0.7 0.8 0.1
v 0.9 0.8 0.1
v 0.8 0.9 -0.2
v 1 0.9 -0.2
v -0.4 0.9 -0.4
v 0 0.9 -0.4
v -0.3 0.9 -0.5
v -0.1 0.9 -0.5
v -0.3 0.9 -0.7
v -0.1 0.9 -0.7
v -0.4 0.9 -0.8
v 0 0.9 -0.8
v 0.8 0.9 -1.1
v 1 0.9 -1.1
v -0.7 1 1
v 0.9 1 1
v -0.7 1 0.9
v 0.9 1 0.9
v -0.7 1 0.3
v 0.9 1 0.3
v -0.7 1 0.2
v 0.9 1 0.2
v -0.7 1.2 0.7
v 0.9 1.2 0.7
v -0.7 1.2 0.5
v 0.9 1.2 0.5

# faces
f 5/3/1 2/3/1 1/3/1
f 6/3/1 4/3/1 3/3/1
f 7/3/1 5/3/1 1/3/1
f 7/3/1 6/3/1 5/3/1
f 8/3/1 4/3/1 6/3/1
f 8/3/1 6/3/1 7/3/1
f 11/1/1 10/1/1 9/1/1
f 12/1/1 10/1/1 11/1/1
f 15/3/1 14/3/1 13/3/1
f 16/3/1 14/3/1 15/3/1
f 23/2/1 18/2/1 17/2/1
f 24/2/1 18/2/1 23/2/1
f 25/2/1 22/2/1 21/2/1
f 26/2/1 22/2/1 25/2/1
f 27/2/1 18/2/1 24/2/1
f 28/2/1 18/2/1 27/2/1
f 29/2/1 25/2/1 21/2/1
f 30/2/1 25/2/1 29/2/1
f 31/2/1 20/2/1 19/2/1
f 32/2/1 20/2/1 31/2/1
f 35/3/1 34/3/1 33/3/1
f 36/3/1 34/3/1 35/3/1
f 39/3/1 38/3/1 37/3/1
f 40/3/1 38/3/1 39/3/1
f 43/3/1 42/3/1 41/3/1
f 44/3/1 42/3/1 43/3/1
f 47/2/1 46/2/1 45/2/1
f 48/2/1 46/2/1 47/2/1
f 51/2/1 50/2/1 49/2/1
f 52/2/1 50/2/1 51/2/1
f 53/3/2 54/3/2 57/3/2
f 55/3/2 56/3/2 60/3/2
f 57/3/2 58/3/2 61/3/2
f 53/3/2 57/3/2 61/3/2
f 61/3/2 58/3/2 62/3/2
f 59/3/2 60/3/2 63/3/2
f 60/3/2 56/3/2 64/3/2
f 63/3/2 60/3/2 64/3/2
f 65/3/2 66/3/2 67/3/2
f 67/3/2 66/3/2 68/3/2
f 69/3/2 70/3/2 71/3/2
f 71/3/2 70/3/2 72/3/2
f 73/3/2 74/3/2 75/3/2
f 75/3/2 74/3/2 76/3/2
f 77/3/2 78/3/2 79/3/2
f 79/3/2 78/3/2 80/3/2
f 81/2/2 82/2/2 83/2/2
f 83/2/2 82/2/2 84/2/2
f 85/2/2 86/2/2 91/2/2
f 91/2/2 86/2/2 92/2/2
f 89/2/2 90/2/2 93/2/2
f 93/2/2 90/2/2 94/2/2
f 92/2/2 86/2/2 95/2/2
f 95/2/2 86/2/2 96/2/2
f 89/2/2 93/2/2 97/2/2
f 97/2/2 93/2/2 98/2/2
f 87/2/2 88/2/2 99/2/2
f 99/2/2 88/2/2 100/2/2
f 101/2/2 102/2/2 103/2/2
f 103/2/2 102/2/2 104/2/2
f 105/1/2 106/1/2 107/1/2
f 107/1/2 106/1/2 108/1/2
f 109/1/2 110/1/2 111/1/2
f 111/1/2 110/1/2 112/1/2
f 115/3/3 114/3/3 113/3/3
f 116/3/3 114/3/3 115/3/3
f 119/1/3 118/1/3 117/1/3
f 120/1/3 118/1/3 119/1/3
f 123/1/3 122/1/3 121/1/3
f 124/1/3 122/1/3 123/1/3
f 127/2/3 126/2/3 125/2/3
f 128/2/3 126/2/3 127/2/3
f 131/2/3 130/2/3 129/2/3
f 132/2/3 130/2/3 131/2/3
f 135/2/3 134/2/3 133/2/3
f 136/2/3 134/2/3 135/2/3
f 139/2/3 138/2/3 137/2/3
f 140/2/3 138/2/3 139/2/3
f 143/2/3 142/2/3 141/2/3
f 144/2/3 142/2/3 143/2/3
f 147/2/3 146/2/3 145/2/3
f 148/2/3 146/2/3 147/2/3
f 151/3/3 150/3/3 149/3/3
f 152/3/3 150/3/3 151/3/3
f 155/3/3 154/3/3 153/3/3
f 156/3/3 154/3/3 155/3/3
f 159/3/3 158/3/3 157/3/3
f 160/3/3 158/3/3 159/3/3
f 163/3/3 162/3/3 161/3/3
f 164/3/3 162/3/3 163/3/3
f 167/3/3 166/3/3 165/3/3
f 168/3/3 166/3/3 167/3/3
f 169/3/4 170/3/4 171/3/4
f 171/3/4 170/3/4 172/3/4
f 173/2/4 174/2/4 175/2/4
f 175/2/4 174/2/4 176/2/4
f 177/2/4 178/2/4 179/2/4
f 179/2/4 178/2/4 180/2/4
f 181/2/4 182/2/4 183/2/4
f 183/2/4 182/2/4 184/2/4
f 185/2/4 186/2/4 187/2/4
f 187/2/4 186/2/4 188/2/4
f 189/3/4 190/3/4 191/3/4
f 191/3/4 190/3/4 192/3/4
f 193/3/4 194/3/4 195/3/4
f 195/3/4 194/3/4 196/3/4
f 197/3/4 198/3/4 199/3/4
f 199/3/4 198/3/4 200/3/4
f 201/3/4 202/3/4 203/3/4
f 203/3/4 202/3/4 204/3/4
f 205/2/4 206/2/4 207/2/4
f 207/2/4 206/2/4 208/2/4
f 209/2/4 210/2/4 211/2/4
f 211/2/4 210/2/4 212/2/4
f 213/1/4 214/1/4 215/1/4
f 215/1/4 214/1/4 216/1/4
f 217/1/4 218/1/4 219/1/4
f 219/1/4 218/1/4 220/1/4
f 221/3/4 222/3/4 223/3/4
f 223/3/4 222/3/4 224/3/4
f 227/3/5 226/3/5 225/3/5
f 228/3/5 226/3/5 227/3/5
f 230/3/5 227/3/5 225/3/5
f 231/1/5 229/1/5 228/1/5
f 231/3/5 227/3/5 230/3/5
f 231/1/5 228/1/5 227/1/5
f 233/1/5 229/1/5 231/1/5
f 234/1/5 229/1/5 233/1/5
f 234/3/5 233/3/5 232/3/5
f 235/1/5 229/1/5 234/1/5
f 236/1/5 229/1/5 235/1/5
f 237/3/5 234/3/5 232/3/5
f 237/3/5 235/3/5 234/3/5
f 238/3/5 235/3/5 237/3/5
f 241/3/5 240/3/5 239/3/5
f 242/3/5 240/3/5 241/3/5
f 243/1/6 244/1/6 245/1/6
f 245/1/6 244/1/6 246/1/6
f 246/1/6 244/1/6 248/1/6
f 247/1/6 248/1/6 249/1/6
f 248/1/6 244/1/6 250/1/6
f 249/1/6 248/1/6 250/1/6
f 251/3/6 252/3/6 253/3/6
f 253/1/6 254/1/6 255/1/6
f 255/1/6 254/1/6 256/1/6
f 253/1/6 255/1/6 257/1/6
f 256/1/6 254/1/6 258/1/6
f 253/1/6 257/1/6 259/1/6
f 257/1/6 258/1/6 259/1/6
f 258/1/6 254/1/6 260/1/6
f 259/1/6 258/1/6 260/1/6
f 253/1/6 259/1/6 261/1/6
f 260/1/6 254/1/6 262/1/6
f 253/1/6 261/1/6 263/1/6
f 261/1/6 262/1/6 263/1/6
f 262/1/6 254/1/6 264/1/6
f 263/1/6 262/1/6 264/1/6
f 253/1/6 263/1/6 265/1/6
f 264/1/6 254/1/6 266/1/6
f 265/1/6 266/1/6 267/1/6
f 267/1/6 266/1/6 268/1/6
f 268/1/6 266/1/6 269/1/6
f 266/1/6 254/1/6 270/1/6
f 269/1/6 266/1/6 270/1/6
f 265/1/6 267/1/6 271/1/6
f 271/1/6 267/1/6 272/1/6
f 253/1/6 265/1/6 275/1/6
f 265/1/6 271/1/6 275/1/6
f 275/1/6 271/1/6 276/1/6
f 273/1/6 274/1/6 279/1/6
f 279/1/6 274/1/6 280/1/6
f 276/1/6 271/1/6 281/1/6
f 272/1/6 267/1/6 282/1/6
f 277/1/6 278/1/6 283/1/6
f 283/1/6 278/1/6 284/1/6
f 253/1/6 275/1/6 285/1/6
f 281/1/6 282/1/6 286/1/6
f 276/1/6 281/1/6 286/1/6
f 282/1/6 267/1/6 287/1/6
f 285/1/6 286/1/6 287/1/6
f 286/1/6 282/1/6 287/1/6
f 268/1/6 269/1/6 288/1/6
f 288/1/6 269/1/6 289/1/6
f 270/1/6 254/1/6 290/1/6
f 251/3/6 253/3/6 291/3/6
f 289/1/6 290/1/6 291/1/6
f 253/1/6 285/1/6 291/1/6
f 285/1/6 287/1/6 291/1/6
f 287/1/6 288/1/6 291/1/6
f 288/1/6 289/1/6 291/1/6
f 290/1/6 254/1/6 292/1/6
f 291/1/6 290/1/6 292/1/6
f 251/3/6 291/3/6 293/3/6
f 293/3/6 291/3/6 294/3/6
f 297/3/6 298/3/6 299/3/6
f 299/3/6 298/3/6 300/3/6
f 297/3/6 299/3/6 301/3/6
f 300/3/6 298/3/6 302/3/6
f 297/3/6 301/3/6 303/3/6
f 301/3/6 302/3/6 303/3/6
f 302/3/6 298/3/6 304/3/6
f 303/3/6 302/3/6 304/3/6
f 295/2/6 296/2/6 305/2/6
f 305/2/6 296/2/6 306/2/6
f 307/2/6 308/2/6 309/2/6
f 309/2/6 308/2/6 310/2/6
f 311/2/6 312/2/6 313/2/6
f 313/2/6 312/2/6 314/2/6
f 317/3/6 318/3/6 319/3/6
f 319/3/6 318/3/6 320/3/6
f 317/3/6 319/3/6 321/3/6
f 320/3/6 318/3/6 322/3/6
f 317/3/6 321/3/6 323/3/6
f 321/3/6 322/3/6 323/3/6
f 322/3/6 318/3/6 324/3/6
f 323/3/6 322/3/6 324/3/6
f 315/2/6 316/2/6 325/2/6
f 325/2/6 316/2/6 326/2/6
f 327/2/6 328/2/6 329/2/6
f 329/2/6 328/2/6 330/2/6
f 331/2/6 332/2/6 333/2/6
f 333/2/6 332/2/6 334/2/6
f 335/2/6 336/2/6 337/2/6
f 337/2/6 336/2/6 338/2/6
